<svg width="83" height="64" viewBox="0 0 83 64" fill="none" xmlns="http://www.w3.org/2000/svg">
<path d="M11.423 5.88789C23.2776 17.553 23.7729 45.8312 11.423 58.2043C-0.926927 70.5773 0.556258 58.2043 0.556258 58.2043L0.556258 5.88789C0.556258 5.88789 -0.431646 -5.77725 11.423 5.88789Z" fill="#232E1F"/>
<ellipse cx="58.4998" cy="31.8884" rx="24.5" ry="14" transform="rotate(90 58.4998 31.8884)" fill="#232E1F"/>
<path d="M58.5002 7.57874L58.5002 56.5787C58.5002 56.5787 0.500244 52.3787 0.500244 36.9787C0.500244 21.5787 0.500244 42.5787 0.500244 27.1787C0.500244 11.7787 58.5002 7.57874 58.5002 7.57874Z" fill="#232E1F"/>
<path d="M57.8894 8.12802C57.928 8.12488 57.965 8.1219 58.0002 8.11906L58.0002 56.0384C57.965 56.0356 57.928 56.0326 57.8894 56.0294C57.4661 55.9951 56.8447 55.9426 56.0536 55.8703C54.4711 55.7257 52.2097 55.5019 49.4957 55.1852C44.0664 54.5518 36.8317 53.5475 29.6007 52.0639C22.3628 50.5789 15.159 48.6196 9.77568 46.0857C7.08325 44.8184 4.87503 43.4205 3.34629 41.8892C1.82177 40.362 1.00024 38.7318 1.00024 36.9787V33.1769V33.1767V33.1766V33.176V33.1759V33.1751V33.1749V33.1739V33.1735V33.1718V33.1697V33.1673V33.1646V33.1615V33.158V33.1542V33.0412V32.9865V32.9767V32.9667V32.9564V32.946V32.9353V32.9245V32.9134V32.9022V32.8908V32.8793V32.8675V32.8556V32.8435V32.8312V32.8188V32.8062V32.7935V32.7806V32.7678V32.7676V32.7544V32.7411V32.7276V32.7245V32.714V32.7003V32.6864V32.6819V32.6724V32.6583V32.6441V32.6399V32.6297V32.6152V32.6006V32.5984V32.586V32.5712V32.5576V32.5563V32.5413V32.5262V32.5175V32.511V32.4958V32.4821V32.4804V32.4779V32.465V32.4565V32.4495V32.4389V32.4339V32.4305V32.4182V32.4039V32.4025V32.4005V32.3867V32.3769V32.3709V32.3627V32.355V32.3492V32.339V32.3255V32.323V32.3211V32.3069V32.2924V32.2908V32.2889V32.2747V32.2631V32.2585V32.2529V32.2423V32.2333V32.226V32.2174V32.2097V32.203V32.1934V32.1826V32.1771V32.1721V32.1607V32.1483V32.1443V32.1406V32.1279V32.1146V32.1115V32.1086V32.0951V32.0814V32.0787V32.076V32.0623V32.0489V32.0459V32.0429V32.0295V32.0168V32.0131V32.0092V31.9968V31.9854V31.9804V31.9749V31.9641V31.9545V31.9478V31.94V31.9315V31.9242V31.9152V31.9046V31.899V31.8944V31.8828V31.8686V31.8666V31.8651V31.8505V31.8364V31.8345V31.832V31.8185V31.8082V31.8025V31.7948V31.7866V31.7806V31.7707V31.757V31.7549V31.7535V31.7392V31.727V31.7236V31.7186V31.708V31.7009V31.6925V31.6796V31.6771V31.6754V31.6617V31.6464V31.64V31.6313V31.6162V31.6012V31.5998V31.5863V31.5715V31.559V31.5568V31.5422V31.5278V31.5176V31.5134V31.4992V31.4851V31.4756V31.4711V31.4572V31.4435V31.4329V31.4299V31.4164V31.4031V31.3899V31.3897V31.3768V31.364V31.3512V31.3386V31.3262V31.314V31.3019V31.29V31.2782V31.2666V31.2552V31.244V31.233V31.2222V31.2115V31.2011V31.1908V31.1808V31.1709V31.1613V31.1519V31.1427V31.1337V31.1249V31.1163V31.1162V31.108V31.0999V31.0921V31.0845V31.0771V31.07V31.0631V31.0564V31.0501V31.0439V31.0381V31.0325V31.0272V31.0221V31.0173V31.0128V31.0086V31.0046V31.0033V31.001V30.9994V30.9976V30.996V30.9945V30.9929V30.9917V30.9901V30.9892V30.9877V30.9871V30.9857V30.9852V30.984V30.9836V30.9826V30.9824V30.9816V30.9814V30.9809V30.9808V30.9805V27.1787C1.00024 25.4257 1.82177 23.7955 3.34629 22.2683C4.87503 20.7369 7.08325 19.3391 9.77568 18.0718C15.159 15.5379 22.3628 13.5786 29.6007 12.0935C36.8317 10.6099 44.0664 9.60566 49.4957 8.97224C52.2097 8.65561 54.4711 8.43181 56.0536 8.28721C56.8447 8.21491 57.4661 8.16242 57.8894 8.12802Z" stroke="black" stroke-opacity="0.13"/>
<path fill-rule="evenodd" clip-rule="evenodd" d="M62.0245 56.349C73.3325 56.349 82.4995 45.38 82.4995 31.849C82.4995 18.318 73.3325 7.349 62.0245 7.349C59.3371 7.349 56.7706 7.96853 54.4194 9.09472C49.778 12.7074 46.4995 21.5337 46.4995 31.849C46.4995 42.1643 49.778 50.9906 54.4194 54.6033C56.7706 55.7295 59.3371 56.349 62.0245 56.349Z" fill="black"/>
</svg>
